# xmcd
#
# Track frame offsets: 
#        150
#        18514
#        38385
#        57494
#        82150
#        95926
#        116568
#        138076
#        155193
#        177680
#        199331
#        218783
#
# Disc length: 3162 seconds
#
# Revision: 0
# Processed by: cddbd v1.5.2PL0 Copyright (c) Steve Scherf et al.
# Submitted via: ExactAudioCopy v0.99pb4
#
DISCID=b30c580c
DTITLE=Willie Nile - House of a Thousand Guitars
DYEAR=2009
DGENRE=nyc
TTITLE0=House of a Thousand Guitars
TTITLE1=Run
TTITLE2=Doomsday Dance
TTITLE3=Love Is a Train
TTITLE4=Her Love Falls Like Rain
TTITLE5=Now That the War Is Over
TTITLE6=Give Me Tomorrow
TTITLE7=Magdalena
TTITLE8=Little Light
TTITLE9=Touch Me
TTITLE10=The Midnight Rose
TTITLE11=When the Last Light Goes Out on Broadway
EXTD=
EXTT0=
EXTT1=
EXTT2=
EXTT3=
EXTT4=
EXTT5=
EXTT6=
EXTT7=
EXTT8=
EXTT9=
EXTT10=
EXTT11=
PLAYORDER=
